<mxfile host="app.diagrams.net" modified="2022-04-02T07:23:48.505Z" agent="5.0 (Windows NT 10.0; Win64; x64) AppleWebKit/537.36 (KHTML, like Gecko) Chrome/100.0.4896.60 Safari/537.36" etag="APJ7kk-5wVygQKgbzpMj" version="17.3.0" type="github">
  <diagram id="5uqmsAaKQCMNco_1L7aa" name="Page-1">
    <mxGraphModel dx="782" dy="379" grid="1" gridSize="10" guides="1" tooltips="1" connect="1" arrows="1" fold="1" page="1" pageScale="1" pageWidth="850" pageHeight="1100" math="0" shadow="0">
      <root>
        <mxCell id="0" />
        <mxCell id="1" parent="0" />
        <mxCell id="odTmP3_AuSFVVzKLul_A-1" value="List" style="swimlane;fontStyle=0;childLayout=stackLayout;horizontal=1;startSize=30;horizontalStack=0;resizeParent=1;resizeParentMax=0;resizeLast=0;collapsible=1;marginBottom=0;" vertex="1" parent="1">
          <mxGeometry x="210" y="420" width="360" height="120" as="geometry" />
        </mxCell>
        <mxCell id="odTmP3_AuSFVVzKLul_A-2" value="Item 1" style="text;strokeColor=none;fillColor=none;align=left;verticalAlign=middle;spacingLeft=4;spacingRight=4;overflow=hidden;points=[[0,0.5],[1,0.5]];portConstraint=eastwest;rotatable=0;" vertex="1" parent="odTmP3_AuSFVVzKLul_A-1">
          <mxGeometry y="30" width="360" height="30" as="geometry" />
        </mxCell>
        <mxCell id="odTmP3_AuSFVVzKLul_A-3" value="Item 2" style="text;strokeColor=none;fillColor=none;align=left;verticalAlign=middle;spacingLeft=4;spacingRight=4;overflow=hidden;points=[[0,0.5],[1,0.5]];portConstraint=eastwest;rotatable=0;" vertex="1" parent="odTmP3_AuSFVVzKLul_A-1">
          <mxGeometry y="60" width="360" height="30" as="geometry" />
        </mxCell>
        <mxCell id="odTmP3_AuSFVVzKLul_A-4" value="Item 3" style="text;strokeColor=none;fillColor=none;align=left;verticalAlign=middle;spacingLeft=4;spacingRight=4;overflow=hidden;points=[[0,0.5],[1,0.5]];portConstraint=eastwest;rotatable=0;" vertex="1" parent="odTmP3_AuSFVVzKLul_A-1">
          <mxGeometry y="90" width="360" height="30" as="geometry" />
        </mxCell>
        <mxCell id="odTmP3_AuSFVVzKLul_A-6" value="&lt;h1&gt;vCenter Host Metrics&lt;/h1&gt;&lt;h5&gt;&lt;font color=&quot;#ff0080&quot;&gt;OPR Requestor Job Sequence:&lt;br&gt;&lt;div style=&quot;text-align: justify&quot;&gt;&lt;span style=&quot;color: rgb(0 , 0 , 0) ; font-size: 12px ; font-weight: normal&quot;&gt;uf120_load_host_metrics&lt;/span&gt;&lt;/div&gt;&lt;/font&gt;&lt;div style=&quot;text-align: justify&quot;&gt;&lt;span style=&quot;font-size: 12px ; font-weight: normal&quot;&gt;uf130_update_rpt_host_metrics_cluster&lt;/span&gt;&lt;/div&gt;&lt;div style=&quot;text-align: justify&quot;&gt;&lt;span style=&quot;font-size: 12px ; font-weight: normal&quot;&gt;uf140_update_rpt_host_metrics_folder&lt;/span&gt;&lt;/div&gt;&lt;div style=&quot;text-align: justify&quot;&gt;&lt;span style=&quot;font-size: 12px ; font-weight: normal&quot;&gt;uf142_update_rpt_host_metrics_datacenter&lt;/span&gt;&lt;/div&gt;&lt;div style=&quot;text-align: justify&quot;&gt;&lt;span style=&quot;font-size: 12px ; font-weight: normal&quot;&gt;uf150_update_rpt_host_metrics_storage&lt;/span&gt;&lt;/div&gt;&lt;div style=&quot;text-align: justify&quot;&gt;&lt;span style=&quot;font-size: 12px ; font-weight: normal&quot;&gt;uf170_load_combined_host_servers&lt;/span&gt;&lt;/div&gt;&lt;div style=&quot;text-align: justify&quot;&gt;&lt;span style=&quot;font-size: 12px ; font-weight: normal&quot;&gt;uf180_load_rpt_hourly_vsan_disk_metrics&lt;/span&gt;&lt;/div&gt;&lt;div style=&quot;text-align: justify&quot;&gt;&lt;span style=&quot;font-size: 12px ; font-weight: normal&quot;&gt;uf182_load_rpt_daily_vsan_disk_metrics&lt;/span&gt;&lt;/div&gt;&lt;div style=&quot;text-align: justify&quot;&gt;&lt;span style=&quot;font-size: 12px ; font-weight: normal&quot;&gt;uf184_load_rpt_avg_vsan_disk_metrics&lt;/span&gt;&lt;/div&gt;&lt;div style=&quot;text-align: justify&quot;&gt;&lt;span style=&quot;font-size: 12px ; font-weight: normal&quot;&gt;uf200_rpt_avg_hourly_metrics&lt;/span&gt;&lt;/div&gt;&lt;div style=&quot;text-align: justify&quot;&gt;&lt;span style=&quot;font-size: 12px ; font-weight: normal&quot;&gt;uf205_update_rpt_avg_hourly_metrics_hcu&lt;/span&gt;&lt;/div&gt;&lt;div style=&quot;text-align: justify&quot;&gt;&lt;span style=&quot;font-size: 12px ; font-weight: normal&quot;&gt;uf210_rpt_avg_daily_metrics&lt;/span&gt;&lt;/div&gt;&lt;div style=&quot;text-align: justify&quot;&gt;&lt;span style=&quot;font-size: 12px ; font-weight: normal&quot;&gt;uf220_rpt_avg_metrics&lt;/span&gt;&lt;/div&gt;&lt;div style=&quot;text-align: justify&quot;&gt;&lt;span style=&quot;font-size: 12px ; font-weight: normal&quot;&gt;uf230d_load_rpt_appliance_detail&lt;/span&gt;&lt;/div&gt;&lt;/h5&gt;" style="text;html=1;strokeColor=none;fillColor=default;spacing=3;spacingTop=-20;whiteSpace=wrap;overflow=hidden;rounded=1;opacity=80;shadow=1;sketch=1;glass=1;dashed=1;dashPattern=1 1;imageWidth=24;" vertex="1" parent="1">
          <mxGeometry x="180" y="110" width="440" height="280" as="geometry" />
        </mxCell>
      </root>
    </mxGraphModel>
  </diagram>
</mxfile>
